<?xml version="1.0" standalone="no"?>
<!DOCTYPE svg PUBLIC "-//W3C//DTD SVG 20010904//EN"
 "http://www.w3.org/TR/2001/REC-SVG-20010904/DTD/svg10.dtd">
<svg version="1.0" xmlns="http://www.w3.org/2000/svg"
 width="557.000000pt" height="557.000000pt" viewBox="0 0 557.000000 557.000000"
 preserveAspectRatio="xMidYMid meet">

<g transform="translate(0.000000,557.000000) scale(0.100000,-0.100000)"
fill="#000000" stroke="none">
<path d="M0 2785 l0 -2785 2785 0 2785 0 0 2785 0 2785 -2785 0 -2785 0 0
-2785z m2405 1095 c14 -22 -17 -40 -70 -40 -81 0 -243 -18 -420 -46 -144 -24
-363 -68 -370 -76 -2 -2 -20 -68 -40 -148 -34 -136 -82 -321 -139 -540 -13
-52 -23 -96 -21 -98 2 -2 82 14 177 37 297 71 435 92 467 72 28 -18 -6 -38
-77 -44 -96 -9 -573 -113 -587 -129 -6 -7 -96 -419 -115 -531 -21 -126 -29
-277 -16 -315 30 -89 162 -18 421 226 44 41 123 116 175 166 52 51 102 97 111
104 21 16 49 5 49 -18 0 -28 -69 -111 -90 -108 -11 2 -54 -31 -117 -92 -304
-291 -439 -383 -530 -358 -66 17 -86 91 -71 258 9 106 57 360 102 545 13 55
23 101 21 103 -10 10 -214 -59 -342 -115 -24 -10 -28 29 -5 47 21 18 156 69
292 112 l75 23 41 160 c23 88 69 265 102 393 46 176 57 232 46 232 -27 0 -258
-80 -329 -115 -86 -41 -150 -104 -139 -138 4 -12 17 -32 30 -44 28 -26 30 -41
8 -50 -19 -7 -80 50 -89 84 -4 16 2 41 15 67 37 77 206 164 457 236 70 20 73
22 83 60 8 29 16 40 30 40 20 0 24 -9 21 -42 -3 -22 1 -22 81 -3 288 66 744
117 763 85z m73 -22 c46 -46 -56 -340 -184 -533 -39 -59 -76 -200 -189 -725
-98 -457 -129 -634 -113 -659 11 -18 10 -26 -6 -56 -20 -37 -50 -46 -60 -18
-24 62 233 1273 360 1689 70 234 144 350 192 302z m608 -354 c18 -69 -57 -264
-183 -481 -29 -50 -56 -106 -60 -123 l-6 -32 54 6 c30 4 73 10 96 13 34 4 44
2 49 -12 11 -28 -12 -38 -114 -48 l-99 -10 -12 -51 c-65 -280 -166 -749 -200
-926 -31 -164 -35 -208 -22 -224 10 -11 9 -22 -5 -48 -19 -38 -32 -48 -51 -41
-20 8 -16 70 12 233 44 248 190 933 221 1033 5 17 0 19 -63 15 -63 -3 -68 -1
-71 18 -3 18 4 22 35 27 21 4 55 7 75 7 34 0 38 3 47 38 6 20 29 106 51 191
88 330 163 482 221 450 11 -5 22 -21 25 -35z m699 -357 c29 -22 15 -91 -44
-213 -29 -58 -50 -108 -47 -111 9 -9 86 24 136 57 49 33 87 39 96 15 4 -8 -5
-52 -19 -98 -80 -257 -121 -497 -84 -497 41 0 187 201 287 395 56 107 99 165
123 165 5 0 22 14 38 31 35 38 73 36 102 -3 16 -21 22 -48 25 -113 l5 -85 27
0 c47 0 115 35 169 89 52 49 81 57 81 21 0 -24 -94 -105 -158 -135 -31 -15
-70 -25 -97 -25 -36 0 -47 -4 -56 -22 -25 -46 -73 -78 -117 -78 -25 0 -43 9
-68 34 -19 19 -34 42 -34 51 0 14 -3 15 -15 5 -8 -7 -15 -17 -15 -22 0 -6 -38
-67 -84 -137 -83 -126 -144 -193 -192 -211 -32 -13 -73 6 -81 38 -16 65 20
264 86 480 11 34 17 62 14 62 -3 0 -30 -14 -61 -32 -40 -22 -69 -32 -104 -32
l-49 -1 -35 -65 c-77 -138 -152 -216 -219 -227 -31 -5 -39 -1 -69 30 -33 35
-66 131 -66 192 0 27 -14 33 -27 11 -10 -16 -89 -112 -120 -143 -30 -31 -68
-30 -89 2 -14 22 -15 33 -4 92 29 162 129 303 214 303 33 0 91 -33 100 -57 10
-24 -11 -40 -32 -25 -40 29 -63 36 -89 26 -55 -19 -124 -144 -142 -257 -14
-82 -8 -78 118 83 40 52 78 95 82 94 5 -1 13 -2 18 -2 5 -1 12 -36 16 -77 13
-138 46 -225 85 -225 11 0 37 16 58 35 22 19 41 32 44 30 2 -3 5 1 5 8 0 8 13
33 30 58 17 24 42 68 57 97 25 49 25 54 11 75 -19 28 -19 107 0 154 21 51 94
139 130 157 37 19 37 19 60 3z m-1165 -1967 c0 -5 -4 -10 -10 -10 -5 0 -10 5
-10 10 0 6 5 10 10 10 6 0 10 -4 10 -10z m-134 -52 c8 -27 -5 -37 -20 -15 -32
42 -70 -5 -50 -62 10 -29 44 -42 44 -17 0 9 7 16 15 16 18 0 20 -21 3 -38 -18
-18 -53 -15 -72 7 -27 29 -19 112 12 127 30 15 60 7 68 -18z m-691 -48 c19
-77 14 -98 -14 -61 -20 26 -51 24 -51 -4 0 -8 -7 -15 -15 -15 -18 0 -18 -1 1
73 19 75 20 77 44 77 14 0 22 -15 35 -70z m105 11 c0 -57 1 -60 27 -63 48 -6
39 -28 -11 -28 l-46 0 0 75 c0 60 3 75 15 75 12 0 15 -13 15 -59z m170 12 l12
-48 14 30 c7 17 13 38 14 48 0 11 8 17 25 17 24 0 25 -2 25 -75 0 -60 -3 -75
-15 -75 -11 0 -15 12 -16 48 l-1 47 -15 -47 c-8 -27 -20 -48 -27 -48 -7 0 -20
21 -28 48 l-16 47 -1 -47 c-1 -36 -5 -48 -16 -48 -12 0 -15 15 -15 75 0 72 1
75 24 75 20 0 26 -8 36 -47z m239 -5 c6 -29 14 -63 17 -75 5 -16 2 -23 -9 -23
-8 0 -17 9 -20 20 -6 23 -47 28 -47 6 0 -16 -18 -31 -27 -22 -3 3 2 37 12 76
15 61 20 70 39 70 19 0 25 -8 35 -52z m331 42 c0 -5 -13 -10 -30 -10 -23 0
-30 -4 -30 -20 0 -15 7 -20 24 -20 14 0 28 -4 31 -10 4 -6 -7 -10 -24 -10 -24
0 -31 -4 -31 -20 0 -16 7 -20 30 -20 20 0 30 -5 30 -15 0 -11 -11 -15 -40 -15
l-40 0 0 75 0 75 40 0 c22 0 40 -4 40 -10z m124 -37 l25 -48 1 48 c0 35 4 47
15 47 13 0 15 -13 13 -72 -4 -88 -20 -96 -58 -28 l-25 45 -3 -47 c-5 -77 -22
-55 -22 27 0 91 17 100 54 28z m295 13 c18 -39 1 -101 -32 -110 -63 -17 -67
-12 -67 70 l0 75 42 -3 c36 -2 45 -8 57 -32z m161 24 c0 -5 -13 -10 -30 -10
-23 0 -30 -4 -30 -20 0 -15 7 -20 25 -20 14 0 25 -4 25 -10 0 -5 -11 -10 -25
-10 -23 0 -26 -4 -25 -37 0 -4 14 -6 30 -5 22 3 30 -1 30 -12 0 -12 -11 -16
-45 -16 l-45 0 0 75 0 75 45 0 c25 0 45 -4 45 -10z m238 -17 c2 -16 -2 -23
-12 -23 -9 0 -16 7 -16 15 0 20 -36 19 -44 -1 -11 -29 -6 -71 10 -85 14 -11
18 -11 29 4 15 20 35 22 35 3 0 -23 -28 -39 -57 -31 -36 9 -43 21 -43 72 0 66
7 74 54 71 34 -2 42 -7 44 -25z m155 -44 c18 -76 15 -99 -10 -61 -17 25 -53
30 -53 8 0 -16 -18 -31 -27 -23 -3 3 3 37 13 76 15 59 22 71 39 71 18 0 24
-11 38 -71z m136 24 l14 -48 14 48 c12 39 18 47 38 47 23 0 23 -2 21 -72 -2
-84 -23 -107 -28 -31 l-4 48 -13 -47 c-7 -27 -19 -48 -27 -48 -7 0 -20 21 -28
48 l-15 47 0 -47 c-1 -36 -5 -48 -16 -48 -12 0 -15 15 -15 75 0 72 1 75 23 75
19 0 25 -9 36 -47z m239 35 c29 -29 7 -78 -35 -78 -19 0 -23 -5 -23 -30 0 -20
-5 -30 -15 -30 -12 0 -15 15 -15 75 l0 75 38 0 c21 0 43 -5 50 -12z m170 -13
c18 -39 14 -83 -8 -105 -43 -43 -90 -12 -90 60 0 54 13 70 55 70 24 0 35 -6
43 -25z"/>
<path d="M2412 3754 c-27 -53 -104 -275 -97 -282 13 -13 131 286 122 311 -2 7
-13 -6 -25 -29z"/>
<path d="M2993 3395 c-32 -72 -86 -235 -80 -241 6 -7 63 116 92 197 37 104 29
133 -12 44z"/>
<path d="M3690 3046 c-23 -30 -48 -75 -55 -100 -13 -43 -11 -86 5 -86 5 0 29
42 54 93 74 152 73 192 -4 93z"/>
<path d="M4300 2851 c-16 -31 -12 -76 11 -105 30 -38 39 -32 39 23 0 83 -26
126 -50 82z"/>
<path d="M4215 2777 c-39 -61 -27 -171 22 -183 33 -9 71 10 85 41 10 23 8 28
-26 58 -20 17 -43 50 -50 71 l-13 39 -18 -26z"/>
<path d="M1750 1101 c0 -5 -3 -16 -6 -25 -4 -11 -1 -16 10 -16 18 0 22 35 6
45 -5 3 -10 2 -10 -4z"/>
<path d="M2267 1104 c-13 -13 -7 -44 8 -44 16 0 17 5 6 33 -3 10 -10 15 -14
11z"/>
<path d="M2989 1128 c0 -2 -2 -24 -2 -51 -2 -42 0 -47 20 -47 16 0 25 8 29 25
10 38 -3 75 -26 75 -11 0 -20 -1 -21 -2z"/>
<path d="M3567 1096 c-11 -27 -8 -36 8 -36 16 0 17 5 6 34 -7 18 -8 18 -14 2z"/>
<path d="M3930 1105 c0 -20 4 -26 18 -23 9 2 17 12 17 23 0 11 -8 21 -17 23
-14 3 -18 -3 -18 -23z"/>
<path d="M4085 1097 c-6 -33 7 -77 23 -77 23 1 33 20 30 61 -2 36 -7 45 -25
47 -18 3 -23 -3 -28 -31z"/>
</g>
</svg>
